<svg data-v-423bf9ae="" xmlns="http://www.w3.org/2000/svg" viewBox="0 0 905.6346586963991 193" class="fontAboveSlogan"><!----><!----><!----><g data-v-423bf9ae="" id="2dd62185-9a26-46cb-9478-cd3095055da8" fill="#342103" transform="matrix(8.79120922088623,0,0,8.79120922088623,45.41954803466797,-26.373628616333008)"><path d="M0.98 13.78L3.04 13.78L3.04 10.43L4.12 10.43L5.87 13.78L8.18 13.78L6.12 10.07C7.08 9.63 7.74 8.76 7.74 7.41C7.74 5.21 6.15 4.54 4.21 4.54L0.98 4.54ZM3.04 8.79L3.04 6.17L4.05 6.17C5.14 6.17 5.71 6.48 5.71 7.41C5.71 8.32 5.14 8.79 4.05 8.79ZM13.02 13.94C13.94 13.94 14.98 13.62 15.76 13.12L15.09 11.87C14.48 12.21 13.93 12.38 13.30 12.38C12.28 12.38 11.42 11.90 11.28 10.81L15.96 10.81C15.99 10.63 16.04 10.25 16.04 9.88C16.04 7.94 14.92 6.45 12.78 6.45C10.93 6.45 9.17 7.87 9.17 10.21C9.17 12.57 10.86 13.94 13.02 13.94ZM11.26 9.44C11.44 8.48 12.08 8.04 12.82 8.04C13.76 8.04 14.18 8.60 14.18 9.44ZM21.60 13.94C22.55 13.94 23.63 13.61 24.47 12.89L23.63 11.59C23.14 11.96 22.53 12.28 21.80 12.28C20.65 12.28 19.85 11.47 19.85 10.21C19.85 8.95 20.68 8.12 21.87 8.12C22.39 8.12 22.88 8.30 23.41 8.71L24.36 7.43C23.77 6.87 22.85 6.45 21.76 6.45C19.61 6.45 17.74 7.83 17.74 10.21C17.74 12.59 19.42 13.94 21.60 13.94ZM29.37 5.80C30.18 5.80 30.77 5.26 30.77 4.42C30.77 3.58 30.18 3.00 29.37 3.00C28.56 3.00 27.97 3.58 27.97 4.42C27.97 5.26 28.56 5.80 29.37 5.80ZM26.05 13.78L32.87 13.78L32.87 12.11L30.49 12.11L30.49 6.64L26.05 6.64L26.05 8.25L28.43 8.25L28.43 12.11L26.05 12.11ZM34.61 16.65L36.67 16.65L36.67 14.34L36.60 13.16C37.10 13.68 37.72 13.94 38.33 13.94C39.89 13.94 41.34 12.53 41.34 10.09C41.34 7.88 40.29 6.45 38.56 6.45C37.81 6.45 37.04 6.85 36.48 7.36L36.44 7.36L36.29 6.64L34.61 6.64ZM37.86 12.26C37.51 12.26 37.06 12.14 36.67 11.77L36.67 8.83C37.10 8.36 37.51 8.13 37.95 8.13C38.82 8.13 39.23 8.82 39.23 10.12C39.23 11.61 38.63 12.26 37.86 12.26ZM46.62 13.94C47.54 13.94 48.58 13.62 49.36 13.12L48.69 11.87C48.08 12.21 47.53 12.38 46.90 12.38C45.88 12.38 45.02 11.90 44.88 10.81L49.56 10.81C49.59 10.63 49.64 10.25 49.64 9.88C49.64 7.94 48.52 6.45 46.38 6.45C44.53 6.45 42.77 7.87 42.77 10.21C42.77 12.57 44.46 13.94 46.62 13.94ZM44.86 9.44C45.04 8.48 45.68 8.04 46.42 8.04C47.36 8.04 47.78 8.60 47.78 9.44ZM54.54 13.94C56.77 13.94 57.96 12.95 57.96 11.66C57.96 10.43 56.77 9.90 55.40 9.52C54.42 9.25 53.62 9.03 53.62 8.58C53.62 8.20 53.96 7.99 54.82 7.99C55.55 7.99 56.22 8.27 56.85 8.67L57.78 7.43C57.05 6.96 56.01 6.45 54.78 6.45C52.79 6.45 51.58 7.36 51.58 8.68C51.58 9.81 52.84 10.42 54.05 10.77C55.17 11.09 55.92 11.34 55.92 11.79C55.92 12.18 55.52 12.42 54.59 12.42C53.66 12.42 52.86 12.08 52.07 11.56L51.14 12.85C52.02 13.45 53.30 13.94 54.54 13.94ZM67.33 13.78L69.43 13.78L69.99 11.56L72.74 11.56L73.29 13.78L75.47 13.78L72.63 4.54L70.17 4.54ZM70.41 9.95L70.62 9.09C70.84 8.16 71.11 7.08 71.33 6.10L71.39 6.10L72.11 9.09L72.32 9.95ZM76.61 16.65L78.67 16.65L78.67 14.34L78.60 13.16C79.10 13.68 79.72 13.94 80.33 13.94C81.89 13.94 83.34 12.53 83.34 10.09C83.34 7.88 82.29 6.45 80.56 6.45C79.81 6.45 79.04 6.85 78.48 7.36L78.44 7.36L78.29 6.64L76.61 6.64ZM79.86 12.26C79.51 12.26 79.06 12.14 78.67 11.77L78.67 8.83C79.10 8.36 79.51 8.13 79.95 8.13C80.82 8.13 81.23 8.82 81.23 10.12C81.23 11.61 80.63 12.26 79.86 12.26ZM85.01 16.65L87.07 16.65L87.07 14.34L87.00 13.16C87.50 13.68 88.12 13.94 88.73 13.94C90.29 13.94 91.74 12.53 91.74 10.09C91.74 7.88 90.69 6.45 88.96 6.45C88.21 6.45 87.44 6.85 86.88 7.36L86.84 7.36L86.69 6.64L85.01 6.64ZM88.26 12.26C87.91 12.26 87.46 12.14 87.07 11.77L87.07 8.83C87.50 8.36 87.91 8.13 88.35 8.13C89.22 8.13 89.63 8.82 89.63 10.12C89.63 11.61 89.03 12.26 88.26 12.26Z"></path></g><!----><!----><g data-v-423bf9ae="" id="818db1ee-efe0-4b88-8a3f-a8e117d6401d" fill="#342103" transform="matrix(5.409107208251953,0,0,5.409107208251953,8.35322093963623,127.48799133300781)"><path d="M2.56 7.89Q2.45 7.90 1.55 7.84L1.55 7.84Q1.96 6.63 2.42 5.57L2.42 5.57Q2.58 5.18 3.13 3.95L3.13 3.95Q3.11 4.61 2.93 7.85L2.93 7.85Q2.75 7.87 2.56 7.89L2.56 7.89ZM4.37 1.18Q4.18 1.09 3.80 1.16L3.80 1.16Q3.16 1.27 2.95 1.55L2.95 1.55Q2.75 1.80 1.97 3.58L1.97 3.58Q1.83 3.90 1.47 4.70L1.47 4.70Q1.16 5.42 0.98 5.83L0.98 5.83Q0.56 6.79 0.18 7.86L0.18 7.86Q-0.74 7.97-1.39 8.37L-1.39 8.37Q-1.57 8.48-1.54 8.58L-1.54 8.58Q-1.51 8.67-1.31 8.68L-1.31 8.68Q-0.79 8.70-0.31 8.43L-0.31 8.43Q-0.17 8.41-0.12 8.41L-0.12 8.41Q-0.06 8.41 0 8.41L0 8.41Q-0.32 9.39-0.64 10.53L-0.64 10.53Q-0.71 10.79-0.05 10.67L-0.05 10.67Q0.25 10.62 0.50 10.49L0.50 10.49Q0.77 10.37 0.80 10.27L0.80 10.27Q1.07 9.32 1.34 8.48L1.34 8.48Q1.63 8.50 1.83 8.47L1.83 8.47Q2.54 8.39 2.89 8.46L2.89 8.46Q2.78 10.55 2.78 12.02L2.78 12.02Q2.78 12.10 3.01 12.11L3.01 12.11Q3.23 12.12 3.51 12.06L3.51 12.06Q4.25 11.91 4.25 11.62L4.25 11.62Q4.25 9.90 4.45 6.45L4.45 6.45Q4.65 3.00 4.65 1.27L4.65 1.27Q4.65 1.18 4.37 1.18L4.37 1.18ZM18.01 2.63Q17.72 1.84 17.01 1.42L17.01 1.42Q16.35 1.03 15.46 1.02L15.46 1.02Q14.45 1.00 13.19 1.39L13.19 1.39Q12.47 1.61 12.52 1.80L12.52 1.80Q12.58 2.04 13.31 1.83L13.31 1.83Q13.50 1.76 13.69 1.72L13.69 1.72Q13.70 1.72 13.75 1.70L13.75 1.70Q13.80 1.69 13.82 1.69L13.82 1.69Q13.88 1.67 13.95 1.66L13.95 1.66Q14.01 1.65 14.12 1.63L14.12 1.63Q14.12 1.63 14.22 1.62L14.22 1.62Q14.29 1.61 14.42 1.61L14.42 1.61Q14.42 1.61 14.51 1.61L14.51 1.61Q15.24 1.61 15.80 2.00L15.80 2.00Q16.41 2.43 16.63 3.27L16.63 3.27Q16.82 3.98 16.71 4.81L16.71 4.81Q16.46 6.56 15.27 7.40L15.27 7.40Q15.23 7.42 15.17 7.46L15.17 7.46Q15.18 7.46 15.16 7.46L15.16 7.46Q15.15 7.47 15.13 7.48L15.13 7.48Q15.07 7.48 15.07 7.49L15.07 7.49Q14.97 7.49 14.89 7.47L14.89 7.47Q14.21 7.36 14.14 6.66L14.14 6.66Q14.13 6.60 14.03 6.58L14.03 6.58Q14.04 6.55 14.05 6.49L14.05 6.49Q14.06 6.44 14.07 6.42L14.07 6.42Q14.61 3.25 14.93 2.24L14.93 2.24Q15.01 1.98 14.35 2.10L14.35 2.10Q14.04 2.15 13.79 2.27L13.79 2.27Q13.52 2.40 13.49 2.50L13.49 2.50Q13.17 3.51 12.61 6.77L12.61 6.77Q12.37 8.13 12.15 8.89L12.15 8.89Q11.70 10.44 11.66 10.94L11.66 10.94Q11.66 11.01 11.88 11.02L11.88 11.02Q12.09 11.03 12.37 10.98L12.37 10.98Q13.10 10.84 13.13 10.55L13.13 10.55Q13.16 10.13 13.62 8.54L13.62 8.54Q13.69 8.31 13.75 8.03L13.75 8.03Q14.39 8.13 15.24 7.92L15.24 7.92Q16.95 7.52 17.78 5.75L17.78 5.75Q18.56 4.09 18.01 2.63L18.01 2.63ZM30.45 2.63Q30.16 1.84 29.45 1.42L29.45 1.42Q28.79 1.03 27.90 1.02L27.90 1.02Q26.89 1.00 25.63 1.39L25.63 1.39Q24.91 1.61 24.96 1.80L24.96 1.80Q25.03 2.04 25.75 1.83L25.75 1.83Q25.94 1.76 26.13 1.72L26.13 1.72Q26.14 1.72 26.19 1.70L26.19 1.70Q26.24 1.69 26.26 1.69L26.26 1.69Q26.32 1.67 26.39 1.66L26.39 1.66Q26.45 1.65 26.56 1.63L26.56 1.63Q26.56 1.63 26.66 1.62L26.66 1.62Q26.73 1.61 26.86 1.61L26.86 1.61Q26.87 1.61 26.95 1.61L26.95 1.61Q27.68 1.61 28.24 2.00L28.24 2.00Q28.85 2.43 29.07 3.27L29.07 3.27Q29.26 3.98 29.15 4.81L29.15 4.81Q28.90 6.56 27.71 7.40L27.71 7.40Q27.67 7.42 27.61 7.46L27.61 7.46Q27.62 7.46 27.60 7.46L27.60 7.46Q27.59 7.47 27.57 7.48L27.57 7.48Q27.51 7.48 27.51 7.49L27.51 7.49Q27.41 7.49 27.33 7.47L27.33 7.47Q26.65 7.36 26.58 6.66L26.58 6.66Q26.57 6.60 26.48 6.58L26.48 6.58Q26.48 6.55 26.50 6.49L26.50 6.49Q26.50 6.44 26.51 6.42L26.51 6.42Q27.05 3.25 27.37 2.24L27.37 2.24Q27.45 1.98 26.79 2.10L26.79 2.10Q26.48 2.15 26.23 2.27L26.23 2.27Q25.96 2.40 25.93 2.50L25.93 2.50Q25.61 3.51 25.05 6.77L25.05 6.77Q24.81 8.13 24.59 8.89L24.59 8.89Q24.14 10.44 24.10 10.94L24.10 10.94Q24.10 11.01 24.32 11.02L24.32 11.02Q24.53 11.03 24.81 10.98L24.81 10.98Q25.54 10.84 25.57 10.55L25.57 10.55Q25.60 10.13 26.06 8.54L26.06 8.54Q26.13 8.31 26.20 8.03L26.20 8.03Q26.83 8.13 27.68 7.92L27.68 7.92Q29.39 7.52 30.22 5.75L30.22 5.75Q31.00 4.09 30.45 2.63L30.45 2.63ZM52.64 1.59Q51.54 1.45 49.86 1.75L49.86 1.75Q49.87 1.74 49.88 1.70L49.88 1.70Q49.89 1.66 49.89 1.64L49.89 1.64Q49.96 1.39 49.31 1.50L49.31 1.50Q49.01 1.56 48.75 1.67L48.75 1.67Q48.48 1.80 48.45 1.90L48.45 1.90Q48.46 1.88 48.41 2.08L48.41 2.08Q48.21 2.18 48.15 2.30L48.15 2.30Q48.08 2.43 48.30 2.45L48.30 2.45Q47.03 7.25 46.53 10.98L46.53 10.98Q46.51 11.10 46.89 11.07L46.89 11.07Q47.15 11.05 47.32 11.00L47.32 11.00Q47.95 10.83 47.99 10.59L47.99 10.59Q48.21 8.95 48.57 7.16L48.57 7.16Q48.50 7.17 49.56 7.09L49.56 7.09Q50.20 7.05 50.54 6.75L50.54 6.75Q50.70 6.60 50.50 6.54L50.50 6.54Q50.37 6.50 50.20 6.51L50.20 6.51Q49.07 6.60 48.67 6.66L48.67 6.66Q49.09 4.65 49.73 2.24L49.73 2.24Q50.75 2.06 51.44 2.15L51.44 2.15Q51.92 2.21 52.46 1.96L52.46 1.96Q52.60 1.89 52.71 1.78L52.71 1.78Q52.86 1.62 52.64 1.59L52.64 1.59ZM61.15 5.20Q61.02 6.64 60.76 7.92L60.76 7.92Q60.35 9.88 59.58 10.64L59.58 10.64Q59.49 10.55 59.41 10.38L59.41 10.38Q59.23 9.97 59.24 9.03L59.24 9.03Q59.27 7.34 59.84 5.48L59.84 5.48Q60.34 3.85 61.04 3.01L61.04 3.01Q61.11 3.25 61.16 3.62L61.16 3.62Q61.23 4.21 61.15 5.20L61.15 5.20ZM62.08 1.96Q61.87 1.79 61.13 2.05L61.13 2.05Q60.63 2.24 60.66 2.39L60.66 2.39Q60.40 2.48 60.22 2.63L60.22 2.63Q59.24 3.40 58.58 5.22L58.58 5.22Q58.03 6.70 57.84 8.50L57.84 8.50Q57.76 9.28 57.78 9.92L57.78 9.92Q57.83 10.77 58.19 11.13L58.19 11.13Q58.37 11.31 58.80 11.33L58.80 11.33Q59.34 11.36 60.17 11.02L60.17 11.02Q60.85 10.74 61.37 9.94L61.37 9.94Q61.84 9.21 62.16 7.85L62.16 7.85Q62.37 6.94 62.49 5.84L62.49 5.84Q62.66 4.44 62.66 3.78L62.66 3.78Q62.64 2.45 62.08 1.96L62.08 1.96ZM73.40 5.31Q73.25 6.24 72.35 7.18L72.35 7.18Q72.16 7.38 71.92 7.58L71.92 7.58Q71.86 7.63 71.80 7.68L71.80 7.68Q71.58 7.59 71.33 7.58L71.33 7.58Q71.89 4.74 72.03 2.66L72.03 2.66Q72.30 2.80 72.54 2.99L72.54 2.99Q73.05 3.39 73.28 4.03L73.28 4.03Q73.51 4.65 73.40 5.31L73.40 5.31ZM70.42 2.40Q70.42 2.40 70.44 2.39L70.44 2.39Q70.43 2.40 70.42 2.40L70.42 2.40ZM75.36 11.42Q74.63 10.88 73.10 8.99L73.10 8.99Q72.43 8.17 72.31 8.05L72.31 8.05Q72.77 7.84 73.20 7.50L73.20 7.50Q74.40 6.56 74.76 5.41L74.76 5.41Q75.00 4.60 74.80 3.84L74.80 3.84Q74.59 3.07 73.96 2.53L73.96 2.53Q72.72 1.46 70.65 1.88L70.65 1.88Q70.52 1.91 70.32 1.96L70.32 1.96Q69.58 2.14 69.64 2.37L69.64 2.37Q69.71 2.58 70.42 2.40L70.42 2.40Q70.49 2.39 70.53 2.38L70.53 2.38Q70.57 2.37 70.61 2.37L70.61 2.37Q70.49 5.11 69.25 10.79L69.25 10.79Q69.20 11.04 69.84 10.92L69.84 10.92Q70.14 10.87 70.40 10.75L70.40 10.75Q70.68 10.62 70.70 10.53L70.70 10.53Q70.99 9.17 71.09 8.72L71.09 8.72Q71.09 8.72 71.09 8.72L71.09 8.72Q71.10 8.72 71.10 8.72L71.10 8.72Q71.21 8.85 71.89 9.70L71.89 9.70Q73.21 11.34 73.98 11.92L73.98 11.92Q74.20 12.09 74.92 11.83L74.92 11.83Q75.11 11.76 75.25 11.67L75.25 11.67Q75.50 11.52 75.36 11.42L75.36 11.42ZM95.71 5.31Q95.56 6.24 94.66 7.18L94.66 7.18Q94.47 7.38 94.23 7.58L94.23 7.58Q94.17 7.63 94.11 7.68L94.11 7.68Q93.89 7.59 93.64 7.58L93.64 7.58Q94.20 4.74 94.34 2.66L94.34 2.66Q94.61 2.80 94.85 2.99L94.85 2.99Q95.36 3.39 95.59 4.03L95.59 4.03Q95.82 4.65 95.71 5.31L95.71 5.31ZM92.74 2.40Q92.74 2.40 92.75 2.39L92.75 2.39Q92.74 2.40 92.74 2.40L92.74 2.40ZM97.67 11.42Q96.94 10.88 95.41 8.99L95.41 8.99Q94.74 8.17 94.62 8.05L94.62 8.05Q95.08 7.84 95.51 7.50L95.51 7.50Q96.71 6.56 97.07 5.41L97.07 5.41Q97.32 4.60 97.11 3.84L97.11 3.84Q96.90 3.07 96.28 2.53L96.28 2.53Q95.03 1.46 92.96 1.88L92.96 1.88Q92.83 1.91 92.63 1.96L92.63 1.96Q91.90 2.14 91.96 2.37L91.96 2.37Q92.02 2.58 92.73 2.40L92.73 2.40Q92.80 2.39 92.85 2.38L92.85 2.38Q92.89 2.37 92.92 2.37L92.92 2.37Q92.80 5.11 91.57 10.79L91.57 10.79Q91.51 11.04 92.15 10.92L92.15 10.92Q92.46 10.87 92.71 10.75L92.71 10.75Q92.99 10.62 93.01 10.53L93.01 10.53Q93.30 9.17 93.40 8.72L93.40 8.72Q93.41 8.72 93.41 8.72L93.41 8.72Q93.41 8.72 93.41 8.72L93.41 8.72Q93.52 8.85 94.21 9.70L94.21 9.70Q95.53 11.34 96.29 11.92L96.29 11.92Q96.52 12.09 97.23 11.83L97.23 11.83Q97.42 11.76 97.56 11.67L97.56 11.67Q97.81 11.52 97.67 11.42L97.67 11.42ZM108.77 1.42Q108.06 1.19 106.87 1.57L106.87 1.57Q105.36 2.06 104.80 3.77L104.80 3.77Q104.45 4.83 104.63 6.11L104.63 6.11Q104.72 6.76 104.99 7.16L104.99 7.16Q104.57 7.38 104.28 7.70L104.28 7.70Q103.28 8.80 103.39 10.01L103.39 10.01Q103.46 10.70 103.93 11.11L103.93 11.11Q104.33 11.44 105.16 11.42L105.16 11.42Q105.99 11.39 106.70 10.95L106.70 10.95Q107.45 10.49 107.75 9.76L107.75 9.76Q107.81 9.61 107.53 9.60L107.53 9.60Q107.36 9.59 107.17 9.63L107.17 9.63Q106.42 9.76 106.31 10.02L106.31 10.02Q106.11 10.51 105.77 10.80L105.77 10.80Q105.75 10.81 105.74 10.82L105.74 10.82Q105.69 10.81 105.68 10.81L105.68 10.81Q105.62 10.79 105.53 10.75L105.53 10.75Q105.37 10.68 105.21 10.52L105.21 10.52Q104.92 10.23 104.85 9.63L104.85 9.63Q104.75 8.83 105.38 7.86L105.38 7.86Q105.46 7.74 105.57 7.62L105.57 7.62Q105.78 7.70 106.05 7.72L106.05 7.72Q106.46 7.74 106.95 7.51L106.95 7.51Q107.37 7.32 107.21 7.18L107.21 7.18Q106.93 6.90 106.50 6.84L106.50 6.84Q106.46 6.79 106.43 6.75L106.43 6.75Q106.22 6.45 106.11 5.89L106.11 5.89Q105.92 4.89 106.11 4.00L106.11 4.00Q106.37 2.70 107.14 2.04L107.14 2.04Q107.19 2.00 107.29 1.93L107.29 1.93Q107.30 1.93 107.30 1.93L107.30 1.93Q107.43 1.94 107.41 1.93L107.41 1.93Q107.99 2.02 107.87 2.62L107.87 2.62Q107.82 2.86 108.45 2.75L108.45 2.75Q108.76 2.69 109.01 2.58L109.01 2.58Q109.29 2.45 109.31 2.36L109.31 2.36Q109.45 1.63 108.77 1.42L108.77 1.42ZM120.24 1.54Q119.81 0.91 118.63 1.20L118.63 1.20Q117.67 1.43 117.03 2.14L117.03 2.14Q116.02 3.26 115.59 5.40L115.59 5.40Q115.29 6.86 115.20 8.67L115.20 8.67Q115.19 9.98 115.32 10.47L115.32 10.47Q115.60 11.44 116.68 11.50L116.68 11.50Q117.30 11.53 117.89 11.27L117.89 11.27Q118.49 10.99 118.86 10.51L118.86 10.51Q119.23 10.02 119.57 8.89L119.57 8.89Q119.64 8.64 118.99 8.76L118.99 8.76Q118.69 8.81 118.43 8.93L118.43 8.93Q118.16 9.06 118.13 9.15L118.13 9.15Q117.89 9.99 117.61 10.48L117.61 10.48Q117.50 10.68 117.37 10.83L117.37 10.83Q116.80 10.58 116.68 9.66L116.68 9.66Q116.65 9.42 116.66 8.20L116.66 8.20Q116.76 6.41 117.07 4.92L117.07 4.92Q117.54 2.75 118.57 1.80L118.57 1.80Q118.58 1.79 118.61 1.76L118.61 1.76Q118.97 2.01 119.07 2.75L119.07 2.75Q119.14 3.36 118.93 4.29L118.93 4.29Q118.60 5.76 118.59 5.80L118.59 5.80Q118.57 5.92 118.95 5.89L118.95 5.89Q119.21 5.87 119.38 5.82L119.38 5.82Q120.01 5.65 120.05 5.41L120.05 5.41Q120.10 5.07 120.26 4.41L120.26 4.41Q120.42 3.74 120.48 3.40L120.48 3.40Q120.67 2.17 120.24 1.54L120.24 1.54ZM128.48 2.53Q128.24 3.62 127.62 6.79L127.62 6.79Q127.38 8.03 127.19 8.93L127.19 8.93Q126.80 10.78 126.79 10.91L126.79 10.91Q126.79 10.99 127.02 11.00L127.02 11.00Q127.24 11.01 127.52 10.96L127.52 10.96Q128.25 10.81 128.26 10.52L128.26 10.52Q128.26 10.23 128.42 9.62L128.42 9.62Q128.50 9.32 128.65 8.57L128.65 8.57Q128.82 7.77 129.08 6.44L129.08 6.44Q129.68 3.36 129.92 2.27L129.92 2.27Q129.98 2.02 129.34 2.13L129.34 2.13Q129.04 2.19 128.78 2.31L128.78 2.31Q128.50 2.44 128.48 2.53L128.48 2.53ZM142.52 2.63Q142.23 1.84 141.52 1.42L141.52 1.42Q140.86 1.03 139.97 1.02L139.97 1.02Q138.96 1.00 137.70 1.39L137.70 1.39Q136.98 1.61 137.03 1.80L137.03 1.80Q137.09 2.04 137.82 1.83L137.82 1.83Q138.01 1.76 138.20 1.72L138.20 1.72Q138.21 1.72 138.26 1.70L138.26 1.70Q138.31 1.69 138.33 1.69L138.33 1.69Q138.39 1.67 138.46 1.66L138.46 1.66Q138.52 1.65 138.63 1.63L138.63 1.63Q138.63 1.63 138.73 1.62L138.73 1.62Q138.80 1.61 138.93 1.61L138.93 1.61Q138.93 1.61 139.02 1.61L139.02 1.61Q139.75 1.61 140.31 2.00L140.31 2.00Q140.92 2.43 141.14 3.27L141.14 3.27Q141.33 3.98 141.22 4.81L141.22 4.81Q140.97 6.56 139.78 7.40L139.78 7.40Q139.74 7.42 139.68 7.46L139.68 7.46Q139.69 7.46 139.67 7.46L139.67 7.46Q139.66 7.47 139.64 7.48L139.64 7.48Q139.58 7.48 139.58 7.49L139.58 7.49Q139.48 7.49 139.40 7.47L139.40 7.47Q138.72 7.36 138.65 6.66L138.65 6.66Q138.64 6.60 138.54 6.58L138.54 6.58Q138.55 6.55 138.56 6.49L138.56 6.49Q138.57 6.44 138.58 6.42L138.58 6.42Q139.12 3.25 139.44 2.24L139.44 2.24Q139.52 1.98 138.86 2.10L138.86 2.10Q138.55 2.15 138.30 2.27L138.30 2.27Q138.03 2.40 138.00 2.50L138.00 2.50Q137.68 3.51 137.12 6.77L137.12 6.77Q136.88 8.13 136.66 8.89L136.66 8.89Q136.21 10.44 136.17 10.94L136.17 10.94Q136.17 11.01 136.39 11.02L136.39 11.02Q136.60 11.03 136.88 10.98L136.88 10.98Q137.61 10.84 137.63 10.55L137.63 10.55Q137.67 10.13 138.13 8.54L138.13 8.54Q138.20 8.31 138.26 8.03L138.26 8.03Q138.90 8.13 139.75 7.92L139.75 7.92Q141.46 7.52 142.29 5.75L142.29 5.75Q143.07 4.09 142.52 2.63L142.52 2.63ZM153.71 1.42Q153.00 1.19 151.82 1.57L151.82 1.57Q150.31 2.06 149.75 3.77L149.75 3.77Q149.40 4.83 149.58 6.11L149.58 6.11Q149.67 6.76 149.93 7.16L149.93 7.16Q149.52 7.38 149.22 7.70L149.22 7.70Q148.22 8.80 148.33 10.01L148.33 10.01Q148.40 10.70 148.88 11.11L148.88 11.11Q149.28 11.44 150.10 11.42L150.10 11.42Q150.94 11.39 151.64 10.95L151.64 10.95Q152.39 10.49 152.69 9.76L152.69 9.76Q152.76 9.61 152.48 9.60L152.48 9.60Q152.30 9.59 152.11 9.63L152.11 9.63Q151.36 9.76 151.26 10.02L151.26 10.02Q151.06 10.51 150.71 10.80L150.71 10.80Q150.70 10.81 150.68 10.82L150.68 10.82Q150.64 10.81 150.63 10.81L150.63 10.81Q150.56 10.79 150.48 10.75L150.48 10.75Q150.32 10.68 150.16 10.52L150.16 10.52Q149.87 10.23 149.80 9.63L149.80 9.63Q149.70 8.83 150.33 7.86L150.33 7.86Q150.41 7.74 150.51 7.62L150.51 7.62Q150.73 7.70 151.00 7.72L151.00 7.72Q151.40 7.74 151.89 7.51L151.89 7.51Q152.31 7.32 152.16 7.18L152.16 7.18Q151.87 6.90 151.45 6.84L151.45 6.84Q151.41 6.79 151.38 6.75L151.38 6.75Q151.17 6.45 151.06 5.89L151.06 5.89Q150.87 4.89 151.05 4.00L151.05 4.00Q151.32 2.70 152.09 2.04L152.09 2.04Q152.14 2.00 152.24 1.93L152.24 1.93Q152.24 1.93 152.24 1.93L152.24 1.93Q152.37 1.94 152.35 1.93L152.35 1.93Q152.93 2.02 152.82 2.62L152.82 2.62Q152.77 2.86 153.40 2.75L153.40 2.75Q153.71 2.69 153.96 2.58L153.96 2.58Q154.24 2.45 154.26 2.36L154.26 2.36Q154.40 1.63 153.71 1.42L153.71 1.42ZM165.15 5.50Q165.60 4.74 165.81 3.53L165.81 3.53Q166.04 2.15 165.55 1.57L165.55 1.57Q165.26 1.22 164.51 1.27L164.51 1.27Q163.57 1.33 162.67 1.85L162.67 1.85Q161.42 2.59 160.82 4.34L160.82 4.34Q160.20 6.10 160.82 7.18L160.82 7.18Q161.11 7.68 162.48 8.17L162.48 8.17Q163.05 8.37 163.26 8.48L163.26 8.48Q163.69 8.74 163.78 9.11L163.78 9.11Q163.88 9.50 163.54 10.17L163.54 10.17Q163.36 10.51 163.08 10.76L163.08 10.76Q162.96 10.87 162.80 10.97L162.80 10.97Q162.73 11.02 162.71 11.03L162.71 11.03Q162.65 11.07 162.59 11.09L162.59 11.09Q162.68 11.05 162.56 11.10L162.56 11.10Q162.57 11.10 162.63 11.09L162.63 11.09Q162.59 11.09 162.54 11.09L162.54 11.09Q162.53 11.10 162.44 11.09L162.44 11.09Q162.39 11.09 162.24 11.05L162.24 11.05Q161.88 10.97 161.58 10.64L161.58 10.64Q161.36 10.39 161.27 9.93L161.27 9.93Q161.17 9.44 161.40 9.28L161.40 9.28Q161.59 9.13 161.57 9.06L161.57 9.06Q161.55 8.97 161.31 8.96L161.31 8.96Q160.69 8.95 160.28 9.24L160.28 9.24Q159.89 9.53 159.82 9.86L159.82 9.86Q159.74 10.20 159.89 10.62L159.89 10.62Q160.17 11.36 161.03 11.61L161.03 11.61Q161.92 11.87 163.19 11.37L163.19 11.37Q164.21 10.96 164.77 10.24L164.77 10.24Q165.15 9.76 165.24 9.24L165.24 9.24Q165.34 8.62 164.96 8.23L164.96 8.23Q164.69 7.96 164.13 7.75L164.13 7.75Q163.98 7.70 163.67 7.59L163.67 7.59Q163.37 7.50 163.24 7.44L163.24 7.44Q162.71 7.23 162.43 6.97L162.43 6.97Q162.13 6.69 162.03 5.96L162.03 5.96Q161.83 4.53 162.78 2.97L162.78 2.97Q163.19 2.29 163.70 1.95L163.70 1.95Q163.75 1.91 163.84 1.86L163.84 1.86Q163.84 1.86 163.89 1.84L163.89 1.84Q163.88 1.84 163.92 1.83L163.92 1.83Q163.89 1.84 163.93 1.83L163.93 1.83Q163.86 1.85 163.78 1.85L163.78 1.85Q163.80 1.85 163.79 1.85L163.79 1.85L163.81 1.85Q163.86 1.86 163.95 1.89L163.95 1.89Q163.96 1.89 164.06 1.96L164.06 1.96Q164.12 2.01 164.17 2.06L164.17 2.06Q164.28 2.20 164.35 2.45L164.35 2.45Q164.47 2.84 164.40 3.49L164.40 3.49Q164.28 4.81 163.71 5.76L163.71 5.76Q163.62 5.90 163.93 5.91L163.93 5.91Q164.12 5.92 164.29 5.89L164.29 5.89Q164.99 5.76 165.15 5.50L165.15 5.50Z"></path></g></svg>